<svg xmlns="http://www.w3.org/2000/svg" viewBox="0 0 1386 1386.01"><defs><style>.cls-1{fill:#fccf08;fill-rule:evenodd;}</style></defs><g id="Layer_2" data-name="Layer 2"><g id="Design"><path class="cls-1" d="M1217.46,1146.05A693.2,693.2,0,0,0,423.24,54.48q-29,12.24-56.51,27a682.86,682.86,0,0,0-66.43,40.41H120.16L196.06,210l9.3,10.81,18,20.93,18.73,21.76,7.1,8.24L351.15,390.13H513.31L385.55,241.74H612.64a69.73,69.73,0,0,1,69.53,69.53V469a69.79,69.79,0,0,1-45,65,68.71,68.71,0,0,1-24.54,4.5H251.83l103.24,119.9H582.13L663.54,753c-47.8,29.77-79.76,82.82-79.76,143v199.91c0,92.58,75.73,168.31,168.32,168.31H913.39a607.68,607.68,0,0,1-179.19,39.66q-20.41,1.38-41.2,1.38c-337.56,0-612.17-274.63-612.17-612.19a609.32,609.32,0,0,1,141.3-390.77L168.54,240A693.21,693.21,0,0,0,962.76,1331.54q29-12.26,56.51-27a683,683,0,0,0,66.43-40.42h180.14l-75.9-88.14-9.3-10.8-18-20.94-18.73-21.75-7.1-8.25L1034.85,995.89H872.69l127.76,148.38H773.36a69.73,69.73,0,0,1-69.53-69.52V917a69.79,69.79,0,0,1,45-65,68.71,68.71,0,0,1,24.54-4.5h350.53L1020.66,727.61H803.87l-81.41-94.56c47.8-29.77,79.76-82.82,79.76-143V290.17c0-92.57-75.73-168.31-168.32-168.31H472.6A607.36,607.36,0,0,1,651.8,82.2q20.41-1.36,41.2-1.37c337.56,0,612.17,274.62,612.17,612.17a609.32,609.32,0,0,1-141.31,390.79Z"/></g></g></svg>